<?xml version="1.0" standalone="no"?><!DOCTYPE svg PUBLIC "-//W3C//DTD SVG 1.1//EN" "http://www.w3.org/Graphics/SVG/1.1/DTD/svg11.dtd"><svg t="1648089101809" class="icon" viewBox="0 0 1024 1024" version="1.1" xmlns="http://www.w3.org/2000/svg" p-id="7409" xmlns:xlink="http://www.w3.org/1999/xlink" width="200" height="200"><defs><style type="text/css">@font-face { font-family: feedback-iconfont; src: url("//at.alicdn.com/t/font_1031158_u69w8yhxdu.woff2?t=1630033759944") format("woff2"), url("//at.alicdn.com/t/font_1031158_u69w8yhxdu.woff?t=1630033759944") format("woff"), url("//at.alicdn.com/t/font_1031158_u69w8yhxdu.ttf?t=1630033759944") format("truetype"); }
</style></defs><path d="M865.0752 89.4976L937.984 161.3824l-359.6288 364.544-72.9088-71.8848 359.6288-364.544zM901.12 51.2l35.84-35.84c20.48-20.48 51.2-20.48 71.68 0s20.48 51.2 0 71.68L972.8 122.88l-71.68-71.68zM399.36 634.88c-20.48-20.48 15.36-87.04 35.84-107.52L471.04 491.52l71.68 71.68-35.84 35.84c-20.48 20.48-87.04 56.32-107.52 35.84z m229.376 111.2064l-272.5888 87.8592c-6.3488 21.0944-25.8048 36.4544-48.9472 36.4544-28.2624 0-51.2-22.9376-51.2-51.2 0-8.8064 2.2528-17.2032 6.3488-24.576L193.3312 459.5712h-0.2048C170.5984 454.2464 153.6 433.9712 153.6 409.6c0-28.2624 22.9376-51.2 51.2-51.2s51.2 22.9376 51.2 51.2c0 12.9024-4.7104 24.576-12.6976 33.5872L310.272 768c14.5408 0.8192 27.4432 7.7824 36.2496 18.0224l269.312-86.8352c3.8912-17.8176 17.2032-32.768 35.84-38.0928 27.2384-7.7824 55.5008 7.9872 63.2832 35.2256 7.7824 27.2384-7.9872 55.5008-35.2256 63.2832-18.8416 5.3248-38.2976-0.4096-50.9952-13.5168zM460.8 204.8c15.36 0 25.6-10.24 25.6-25.6S476.16 153.6 460.8 153.6H51.2C20.48 153.6 0 174.08 0 204.8v768c0 30.72 20.48 51.2 51.2 51.2h768c30.72 0 51.2-20.48 51.2-51.2V563.2c0-15.36-10.24-25.6-25.6-25.6s-25.6 10.24-25.6 25.6v358.4c0 25.6-20.48 51.2-51.2 51.2H102.4c-30.72 0-51.2-25.6-51.2-51.2V256c0-30.72 20.48-51.2 51.2-51.2h358.4z" fill="#ffffff" p-id="7410"></path></svg>