<?xml version="1.0" standalone="no"?><!DOCTYPE svg PUBLIC "-//W3C//DTD SVG 1.1//EN" "http://www.w3.org/Graphics/SVG/1.1/DTD/svg11.dtd"><svg t="1648089322107" class="icon" viewBox="0 0 1024 1024" version="1.1" xmlns="http://www.w3.org/2000/svg" p-id="9969" xmlns:xlink="http://www.w3.org/1999/xlink" width="200" height="200"><defs><style type="text/css">@font-face { font-family: feedback-iconfont; src: url("//at.alicdn.com/t/font_1031158_u69w8yhxdu.woff2?t=1630033759944") format("woff2"), url("//at.alicdn.com/t/font_1031158_u69w8yhxdu.woff?t=1630033759944") format("woff"), url("//at.alicdn.com/t/font_1031158_u69w8yhxdu.ttf?t=1630033759944") format("truetype"); }
</style></defs><path d="M581.544229 813.348571H156.689554c-11.562423 0-20.936411-9.169189-20.936411-20.48v-573.44c0-11.310811 9.373989-20.48 20.936411-20.48h657.958035c11.562423 0 20.936411 9.169189 20.936411 20.48v366.773395h53.833143V219.428571c0-40.398263-33.470171-73.142857-74.769554-73.142857H156.689554C115.390171 146.285714 81.92 179.030309 81.92 219.428571v573.44c0 40.398263 33.470171 73.142857 74.769554 73.142858h424.854675v-52.662858z" p-id="9970" fill="#ffffff"></path><path d="M734.354286 942.08c117.953097 0 213.577143-95.624046 213.577143-213.577143S852.307383 514.925714 734.354286 514.925714 520.777143 610.54976 520.777143 728.502857s95.624046 213.577143 213.577143 213.577143z m0-46.811429c-92.101486 0-166.765714-74.664229-166.765715-166.765714S642.2528 561.737143 734.354286 561.737143s166.765714 74.664229 166.765714 166.765714-74.664229 166.765714-166.765714 166.765714z" p-id="9971" fill="#ffffff"></path><path d="M128.731429 362.788571h708.022857v52.662858H128.731429z" p-id="9972" fill="#ffffff"></path><path d="M169.691429 514.925714m26.331428 0l111.177143 0q26.331429 0 26.331429 26.331429l0 0q0 26.331429-26.331429 26.331428l-111.177143 0q-26.331429 0-26.331428-26.331428l0 0q0-26.331429 26.331428-26.331429Z" p-id="9973" fill="#ffffff"></path><path d="M310.125714 64.365714m26.331429 0l0 0q26.331429 0 26.331428 26.331429l0 163.84q0 26.331429-26.331428 26.331428l0 0q-26.331429 0-26.331429-26.331428l0-163.84q0-26.331429 26.331429-26.331429Z" p-id="9974" fill="#ffffff"></path><path d="M608.548571 64.365714m26.331429 0l0 0q26.331429 0 26.331429 26.331429l0 163.84q0 26.331429-26.331429 26.331428l0 0q-26.331429 0-26.331429-26.331428l0-163.84q0-26.331429 26.331429-26.331429Z" p-id="9975" fill="#ffffff"></path><path d="M169.691429 649.508571m26.331428 0l111.177143 0q26.331429 0 26.331429 26.331429l0 0q0 26.331429-26.331429 26.331429l-111.177143 0q-26.331429 0-26.331428-26.331429l0 0q0-26.331429 26.331428-26.331429Z" p-id="9976" fill="#ffffff"></path><path d="M722.651429 646.582857m0 23.405714l0 105.325715q0 23.405714-23.405715 23.405714l0 0q-23.405714 0-23.405714-23.405714l0-105.325715q0-23.405714 23.405714-23.405714l0 0q23.405714 0 23.405715 23.405714Z" p-id="9977" fill="#ffffff"></path><path d="M678.765714 754.834286m23.405715 0l105.325714 0q23.405714 0 23.405714 23.405714l0 0q0 23.405714-23.405714 23.405714l-105.325714 0q-23.405714 0-23.405715-23.405714l0 0q0-23.405714 23.405715-23.405714Z" p-id="9978" fill="#ffffff"></path><path d="M380.342857 514.925714m26.331429 0l111.177143 0q26.331429 0 26.331428 26.331429l0 0q0 26.331429-26.331428 26.331428l-111.177143 0q-26.331429 0-26.331429-26.331428l0 0q0-26.331429 26.331429-26.331429Z" p-id="9979" fill="#ffffff"></path></svg>