<?xml version="1.0" standalone="no"?><!DOCTYPE svg PUBLIC "-//W3C//DTD SVG 1.1//EN" "http://www.w3.org/Graphics/SVG/1.1/DTD/svg11.dtd"><svg t="1671611628828" class="icon" viewBox="0 0 1024 1024" version="1.1" xmlns="http://www.w3.org/2000/svg" p-id="5249" xmlns:xlink="http://www.w3.org/1999/xlink" width="200" height="200"><path d="M938.666667 193.792H85.333333c-47.047111 0-85.333333 38.286222-85.333333 85.333333v512c0 47.047111 38.286222 85.333333 85.333333 85.333334h853.333334c47.047111 0 85.333333-38.286222 85.333333-85.333334v-512c0-47.075556-38.286222-85.333333-85.333333-85.333333z m-853.333334 56.888889h853.333334c15.701333 0 28.444444 12.771556 28.444444 28.444444V369.777778H56.888889V279.125333c0-15.701333 12.771556-28.444444 28.444444-28.444444z m853.333334 568.888889H85.333333c-15.672889 0-28.444444-12.743111-28.444444-28.444445V426.666667h910.222222v364.458666c0 15.672889-12.743111 28.444444-28.444444 28.444445z" fill="#231F20" p-id="5250"></path><path d="M568.888889 543.402667a28.444444 28.444444 0 0 1-28.472889 28.444444h-369.777778a28.444444 28.444444 0 1 1 0-56.888889h369.777778a28.444444 28.444444 0 0 1 28.472889 28.444445zM369.777778 699.847111a28.444444 28.444444 0 0 1-28.444445 28.444445H170.666667a28.444444 28.444444 0 1 1 0-56.888889h170.666666a28.444444 28.444444 0 0 1 28.444445 28.444444z" fill="#231F20" p-id="5251"></path></svg>