<?xml version="1.0" standalone="no"?><!DOCTYPE svg PUBLIC "-//W3C//DTD SVG 1.1//EN" "http://www.w3.org/Graphics/SVG/1.1/DTD/svg11.dtd"><svg t="1659320248237" class="icon" viewBox="0 0 1024 1024" version="1.1" xmlns="http://www.w3.org/2000/svg" p-id="3408" xmlns:xlink="http://www.w3.org/1999/xlink" width="200" height="200"><defs><style type="text/css">@font-face { font-family: feedback-iconfont; src: url("//at.alicdn.com/t/font_1031158_u69w8yhxdu.woff2?t=1630033759944") format("woff2"), url("//at.alicdn.com/t/font_1031158_u69w8yhxdu.woff?t=1630033759944") format("woff"), url("//at.alicdn.com/t/font_1031158_u69w8yhxdu.ttf?t=1630033759944") format("truetype"); }
</style></defs><path d="M834.360389 1023.856266H189.603678A177.583886 177.583886 0 0 1 12.19946 846.452048V177.404218A177.583886 177.583886 0 0 1 189.603678 0H834.360389a177.61982 177.61982 0 0 1 177.404218 177.404218V846.595782a177.61982 177.61982 0 0 1-177.404218 177.260484z m-644.756711-970.207391a123.791276 123.791276 0 0 0-123.647542 123.647542V846.595782A123.755343 123.755343 0 0 0 189.603678 970.20739H834.360389a123.791276 123.791276 0 0 0 123.647542-123.611608V177.404218a123.791276 123.791276 0 0 0-123.647542-123.755343z" fill="#ffffff" p-id="3409"></path><path d="M556.737341 281.144542m39.167631 0l220.668281 0q39.167632 0 39.167632 39.167631l0-0.035933q0 39.167632-39.167632 39.167631l-220.668281 0q-39.167632 0-39.167631-39.167631l0 0.035933q0-39.167632 39.167631-39.167631Z" fill="#ffffff" p-id="3410"></path><path d="M667.089448 469.795979m0-39.167632l0-220.668281q0-39.167632 39.167632-39.167632l-0.035934 0q39.167632 0 39.167632 39.167632l0 220.668281q0 39.167632-39.167632 39.167632l0.035934 0q-39.167632 0-39.167632-39.167632Z" fill="#ffffff" p-id="3411"></path><path d="M153.993473 252.649191m39.167632 0l220.668281 0q39.167632 0 39.167631 39.167632l0-0.035934q0 39.167632-39.167631 39.167632l-220.668281 0q-39.167632 0-39.167632-39.167632l0 0.035934q0-39.167632 39.167632-39.167632Z" fill="#ffffff" p-id="3412"></path><path d="M556.737341 521.648173m39.167631 0l220.668281 0q39.167632 0 39.167632 39.167632l0-0.035933q0 39.167632-39.167632 39.167631l-220.668281 0q-39.167632 0-39.167631-39.167631l0 0.035933q0-39.167632 39.167631-39.167632Z" fill="#ffffff" p-id="3413"></path><path d="M556.737341 705.736042m39.167631 0l220.668281 0q39.167632 0 39.167632 39.167632l0-0.035934q0 39.167632-39.167632 39.167632l-220.668281 0q-39.167632 0-39.167631-39.167632l0 0.035934q0-39.167632 39.167631-39.167632Z" fill="#ffffff" p-id="3414"></path><path d="M213.295833 533.822149m30.153018 24.997978l169.880441 140.837232q30.153018 24.997978 5.15504 55.150995l0.022934-0.027663q-24.997978 30.153018-55.150996 5.155039l-169.880441-140.837231q-30.153018-24.997978-5.15504-55.150996l-0.022934 0.027664q24.997978-30.153018 55.150996-5.15504Z" fill="#ffffff" p-id="3415"></path><path d="M182.762714 755.837092m25.071581-30.091846l141.251907-169.535804q25.071581-30.091846 55.163427-5.020266l-0.027607-0.023001q30.091846 25.071581 5.020265 55.163427l-141.251907 169.535804q-25.071581 30.091846-55.163427 5.020265l0.027607 0.023002q-30.091846-25.071581-5.020265-55.163427Z" fill="#ffffff" p-id="3416"></path></svg>